<svg width="24" height="30" viewBox="0 0 24 30" fill="none" xmlns="http://www.w3.org/2000/svg">
<path d="M22.9914 6.30362L22.5926 5.90483L17.371 0.683276L16.9722 0.284483C16.7917 0.103966 16.5414 0 16.2853 0H1.27397C0.660517 0 0 0.473793 0 1.51345V20.1724V28.726V28.9655C0 29.3984 0.435517 29.8205 0.95069 29.9534C0.976552 29.9602 1.00138 29.97 1.02828 29.9752C1.10897 29.9912 1.19121 30 1.27397 30H22.0019C22.0847 30 22.1669 29.9912 22.2476 29.9752C22.2745 29.97 22.2993 29.9602 22.3252 29.9534C22.8403 29.8205 23.2759 29.3984 23.2759 28.9655V28.726V20.1724V7.23C23.2759 6.83328 23.2283 6.54052 22.9914 6.30362ZM21.4319 6.2069H17.069V1.84397L21.4319 6.2069ZM1.27397 28.9655C1.23724 28.9655 1.20414 28.9521 1.17155 28.9402C1.09086 28.9019 1.03448 28.8212 1.03448 28.726V21.2069H22.2414V28.726C22.2414 28.8212 22.185 28.9014 22.1043 28.9402C22.0717 28.9521 22.0386 28.9655 22.0019 28.9655H1.27397ZM1.03448 20.1724V1.51345C1.03448 1.40121 1.05155 1.03448 1.27397 1.03448H16.0645C16.0474 1.09966 16.0345 1.1669 16.0345 1.23672V7.24138H22.0391C22.109 7.24138 22.1757 7.22845 22.2409 7.21138C22.2409 7.21914 22.2414 7.22224 22.2414 7.23V20.1724H1.03448Z" fill="white"/>
<path d="M8.65599 23.4829C8.43668 23.2522 8.16099 23.0666 7.8284 22.9279C7.49582 22.7893 7.11047 22.7195 6.67237 22.7195H5.10254V27.9312H7.0753C7.14099 27.9312 7.24237 27.9229 7.37944 27.9064C7.51599 27.8898 7.66702 27.8526 7.83202 27.7931C7.99702 27.7341 8.16771 27.6457 8.34461 27.5278C8.5215 27.4098 8.6803 27.2484 8.82202 27.0431C8.96375 26.8378 9.08013 26.5833 9.17219 26.2791C9.26426 25.975 9.3103 25.6083 9.3103 25.1795C9.3103 24.8681 9.25599 24.565 9.14788 24.2707C9.03926 23.9769 8.8753 23.7141 8.65599 23.4829ZM8.03737 26.7571C7.78288 27.1248 7.36806 27.3084 6.79288 27.3084H5.95133V23.3624H6.44633C6.85185 23.3624 7.18185 23.4157 7.43633 23.5217C7.69082 23.6278 7.89254 23.7669 8.04099 23.9391C8.18944 24.1114 8.28926 24.3033 8.34151 24.5153C8.39323 24.7274 8.41909 24.9421 8.41909 25.1588C8.41909 25.8566 8.29185 26.3898 8.03737 26.7571Z" fill="white"/>
<path d="M13.844 23.3129C13.6485 23.091 13.4199 22.9229 13.1582 22.8071C12.8964 22.6912 12.6099 22.6338 12.299 22.6338C11.9882 22.6338 11.7016 22.6912 11.4399 22.8071C11.1782 22.9229 10.9496 23.091 10.754 23.3129C10.5585 23.5348 10.4049 23.8115 10.2942 24.1436C10.1835 24.4762 10.1282 24.8615 10.1282 25.2997C10.1282 25.7378 10.1835 26.1247 10.2942 26.4593C10.4049 26.794 10.558 27.0722 10.754 27.2936C10.9496 27.5155 11.1782 27.6826 11.4399 27.7959C11.7016 27.9091 11.9882 27.9655 12.299 27.9655C12.6099 27.9655 12.8964 27.9091 13.1582 27.7959C13.4199 27.6826 13.6485 27.5155 13.844 27.2936C14.0396 27.0717 14.1927 26.794 14.3039 26.4593C14.4146 26.1247 14.4699 25.7378 14.4699 25.2997C14.4699 24.8615 14.4146 24.4757 14.3039 24.1436C14.1927 23.8115 14.0396 23.5348 13.844 23.3129ZM13.4939 26.2229C13.423 26.4748 13.3252 26.6791 13.2006 26.8348C13.0754 26.9905 12.9342 27.1028 12.7764 27.1705C12.6182 27.2388 12.4521 27.2729 12.2778 27.2729C12.1082 27.2729 11.9463 27.2367 11.7932 27.1633C11.6401 27.0898 11.503 26.975 11.383 26.8167C11.263 26.6584 11.1683 26.4552 11.1001 26.2048C11.0318 25.955 10.9951 25.6534 10.9904 25.2997C10.9951 24.9365 11.0328 24.6303 11.1037 24.3805C11.1746 24.1307 11.2723 23.9269 11.397 23.7686C11.5216 23.6103 11.6633 23.4991 11.8211 23.4329C11.9789 23.3667 12.1449 23.3341 12.3197 23.3341C12.4894 23.3341 12.6508 23.3693 12.8044 23.4402C12.9575 23.511 13.0946 23.6264 13.2146 23.7867C13.3346 23.9471 13.4292 24.1509 13.4975 24.3986C13.5658 24.6464 13.6025 24.9469 13.6071 25.3002C13.602 25.6633 13.5647 25.971 13.4939 26.2229Z" fill="white"/>
<path d="M16.8425 23.7693C16.9672 23.611 17.1089 23.4998 17.2667 23.4336C17.4244 23.3674 17.5905 23.3348 17.7653 23.3348C17.921 23.3348 18.0705 23.3659 18.2142 23.4269C18.358 23.4879 18.4889 23.5873 18.6068 23.7238L19.1939 23.2004C19.0005 23.0121 18.7811 22.8704 18.5365 22.7762C18.2913 22.6816 18.0275 22.635 17.7446 22.635C17.4379 22.635 17.1529 22.6924 16.8891 22.8083C16.6248 22.9241 16.3951 23.0923 16.1996 23.3141C16.0041 23.536 15.8505 23.8128 15.7398 24.1448C15.6291 24.4774 15.5737 24.8628 15.5737 25.3009C15.5737 25.739 15.6291 26.1259 15.7398 26.4605C15.8505 26.7952 16.0036 27.0735 16.1996 27.2948C16.3951 27.5167 16.6237 27.6838 16.8855 27.7971C17.1472 27.9104 17.4337 27.9667 17.7446 27.9667C18.0275 27.9667 18.2913 27.9197 18.5365 27.8255C18.7817 27.7309 19.0005 27.5897 19.1939 27.4014L18.6068 26.8852C18.4842 27.0223 18.3487 27.121 18.2003 27.1821C18.0518 27.2431 17.8925 27.2741 17.7229 27.2741C17.5532 27.2741 17.3913 27.2379 17.2382 27.1645C17.0851 27.091 16.948 26.9762 16.828 26.8179C16.708 26.6597 16.6134 26.4564 16.5451 26.206C16.4768 25.9562 16.4401 25.6547 16.4355 25.3009C16.4401 24.9378 16.4779 24.6316 16.5487 24.3817C16.6196 24.1319 16.7174 23.9276 16.8425 23.7693Z" fill="white"/>
<path d="M3.62076 7.24127H6.72421C7.00972 7.24127 7.24145 7.00955 7.24145 6.72403C7.24145 6.43851 7.00972 6.20679 6.72421 6.20679H3.62076C3.33524 6.20679 3.10352 6.43851 3.10352 6.72403C3.10352 7.00955 3.33524 7.24127 3.62076 7.24127Z" fill="white"/>
<path d="M3.62076 9.8277H8.27593C8.56145 9.8277 8.79317 9.59597 8.79317 9.31045C8.79317 9.02494 8.56145 8.79321 8.27593 8.79321H3.62076C3.33524 8.79321 3.10352 9.02494 3.10352 9.31045C3.10352 9.59597 3.33524 9.8277 3.62076 9.8277Z" fill="white"/>
<path d="M10.3449 9.82758C10.4794 9.82758 10.6138 9.77068 10.7121 9.67758C10.8052 9.5793 10.8621 9.44482 10.8621 9.31034C10.8621 9.17585 10.8052 9.04137 10.7121 8.9431C10.5207 8.75172 10.169 8.75172 9.97764 8.9431C9.88453 9.04137 9.82764 9.17585 9.82764 9.31034C9.82764 9.44482 9.88453 9.5793 9.97764 9.67758C10.0759 9.77068 10.2104 9.82758 10.3449 9.82758Z" fill="white"/>
<path d="M12.4137 9.8277H16.5517C16.8372 9.8277 17.0689 9.59597 17.0689 9.31045C17.0689 9.02494 16.8372 8.79321 16.5517 8.79321H12.4137C12.1282 8.79321 11.8965 9.02494 11.8965 9.31045C11.8965 9.59597 12.1282 9.8277 12.4137 9.8277Z" fill="white"/>
<path d="M3.25352 16.7019C3.16041 16.8002 3.10352 16.9346 3.10352 17.0691C3.10352 17.2036 3.16041 17.3381 3.25352 17.4364C3.35179 17.5295 3.48627 17.5864 3.62076 17.5864C3.75524 17.5864 3.88972 17.5295 3.988 17.4364C4.0811 17.3381 4.138 17.2036 4.138 17.0691C4.138 16.9295 4.0811 16.8002 3.988 16.7019C3.79662 16.5105 3.44489 16.5105 3.25352 16.7019Z" fill="white"/>
<path d="M9.82754 16.5518H5.6896C5.40409 16.5518 5.17236 16.7835 5.17236 17.069C5.17236 17.3545 5.40409 17.5862 5.6896 17.5862H9.82754C10.1131 17.5862 10.3448 17.3545 10.3448 17.069C10.3448 16.7835 10.1131 16.5518 9.82754 16.5518Z" fill="white"/>
<path d="M19.6552 8.79321H18.6208C18.3352 8.79321 18.1035 9.02494 18.1035 9.31045C18.1035 9.59597 18.3352 9.8277 18.6208 9.8277H19.6552C19.9408 9.8277 20.1725 9.59597 20.1725 9.31045C20.1725 9.02494 19.9408 8.79321 19.6552 8.79321Z" fill="white"/>
<path d="M3.62076 12.4136H15.0001C15.2856 12.4136 15.5173 12.1819 15.5173 11.8964C15.5173 11.6109 15.2856 11.3792 15.0001 11.3792H3.62076C3.33524 11.3792 3.10352 11.6109 3.10352 11.8964C3.10352 12.1819 3.33524 12.4136 3.62076 12.4136Z" fill="white"/>
<path d="M19.6551 11.3792H16.5517C16.2661 11.3792 16.0344 11.6109 16.0344 11.8964C16.0344 12.1819 16.2661 12.4136 16.5517 12.4136H19.6551C19.9406 12.4136 20.1724 12.1819 20.1724 11.8964C20.1724 11.6109 19.9406 11.3792 19.6551 11.3792Z" fill="white"/>
<path d="M3.62076 15.0001H5.68972C5.97524 15.0001 6.20696 14.7683 6.20696 14.4828C6.20696 14.1973 5.97524 13.9656 5.68972 13.9656H3.62076C3.33524 13.9656 3.10352 14.1973 3.10352 14.4828C3.10352 14.7683 3.33524 15.0001 3.62076 15.0001Z" fill="white"/>
<path d="M12.9309 13.9656H7.75845C7.47294 13.9656 7.24121 14.1973 7.24121 14.4828C7.24121 14.7683 7.47294 15.0001 7.75845 15.0001H12.9309C13.2164 15.0001 13.4481 14.7683 13.4481 14.4828C13.4481 14.1973 13.2164 13.9656 12.9309 13.9656Z" fill="white"/>
<path d="M19.6551 13.9656H14.9999C14.7144 13.9656 14.4827 14.1973 14.4827 14.4828C14.4827 14.7683 14.7144 15.0001 14.9999 15.0001H19.6551C19.9406 15.0001 20.1723 14.7683 20.1723 14.4828C20.1723 14.1973 19.9406 13.9656 19.6551 13.9656Z" fill="white"/>
</svg>
