<svg width="24" height="30" viewBox="0 0 24 30" fill="none" xmlns="http://www.w3.org/2000/svg">
<path d="M17.8536 0.146438C17.8071 0.100009 17.752 0.06318 17.6913 0.0380542C17.6307 0.0129284 17.5657 -2.39222e-06 17.5 3.31954e-10H3.5C2.57207 0.00105868 1.68244 0.370148 1.0263 1.0263C0.370148 1.68244 0.00105868 2.57207 0 3.5V26.5C0.00105868 27.4279 0.370148 28.3176 1.0263 28.9737C1.68244 29.6299 2.57207 29.9989 3.5 30H20.5C21.4279 29.9989 22.3176 29.6299 22.9737 28.9737C23.6299 28.3176 23.9989 27.4279 24 26.5V6.5C24 6.43434 23.9871 6.36932 23.9619 6.30865C23.9368 6.24799 23.9 6.19287 23.8536 6.14644L17.8536 0.146438ZM18 1.70706L22.2929 6H20.5C19.8372 5.99926 19.2017 5.73562 18.7331 5.26694C18.2644 4.79827 18.0007 4.16281 18 3.5V1.70706ZM3.5 1H17V3.5C17.0011 4.42793 17.3701 5.31756 18.0263 5.9737C18.6824 6.62985 19.5721 6.99894 20.5 7H23V21H1V3.5C1.00074 2.83719 1.26438 2.20173 1.73306 1.73306C2.20173 1.26438 2.83719 1.00074 3.5 1ZM20.5 29H3.5C2.83719 28.9993 2.20173 28.7356 1.73306 28.2669C1.26438 27.7983 1.00074 27.1628 1 26.5V22H23V26.5C22.9993 27.1628 22.7356 27.7983 22.2669 28.2669C21.7983 28.7356 21.1628 28.9993 20.5 29Z" fill="white"/>
<path d="M13 27H11.5V23.5C11.5 23.3674 11.4473 23.2402 11.3536 23.1464C11.2598 23.0527 11.1326 23 11 23C10.8674 23 10.7402 23.0527 10.6464 23.1464C10.5527 23.2402 10.5 23.3674 10.5 23.5V27.5C10.5 27.6326 10.5527 27.7598 10.6464 27.8536C10.7402 27.9473 10.8674 28 11 28H13C13.1326 28 13.2598 27.9473 13.3536 27.8536C13.4473 27.7598 13.5 27.6326 13.5 27.5C13.5 27.3674 13.4473 27.2402 13.3536 27.1464C13.2598 27.0527 13.1326 27 13 27Z" fill="white"/>
<path d="M9.22366 23.0528C9.10506 22.9935 8.96776 22.9837 8.84195 23.0256C8.71615 23.0676 8.61216 23.1578 8.55285 23.2764L8.00003 24.382L7.44722 23.2764C7.3873 23.1588 7.28334 23.0697 7.15802 23.0285C7.03269 22.9873 6.89615 22.9973 6.77815 23.0563C6.66015 23.1153 6.57025 23.2185 6.52805 23.3435C6.48585 23.4685 6.49476 23.6051 6.55285 23.7236L7.44103 25.5L6.55285 27.2764C6.52287 27.3351 6.50483 27.3993 6.49977 27.4651C6.4947 27.5309 6.50271 27.597 6.52333 27.6597C6.54395 27.7224 6.57677 27.7804 6.61991 27.8303C6.66304 27.8802 6.71564 27.9212 6.77466 27.9507C6.83368 27.9802 6.89796 27.9977 6.96379 28.0023C7.02962 28.0068 7.0957 27.9983 7.15823 27.9772C7.22075 27.9561 7.27847 27.9228 7.32807 27.8793C7.37767 27.8358 7.41817 27.7829 7.44722 27.7236L8.00003 26.618L8.55285 27.7236C8.5819 27.7829 8.6224 27.8358 8.672 27.8793C8.7216 27.9228 8.77932 27.9561 8.84184 27.9772C8.90437 27.9983 8.97045 28.0068 9.03628 28.0023C9.10211 27.9977 9.16639 27.9802 9.22541 27.9507C9.28443 27.9212 9.33703 27.8802 9.38016 27.8303C9.4233 27.7804 9.45612 27.7224 9.47674 27.6597C9.49736 27.597 9.50537 27.5309 9.5003 27.4651C9.49524 27.3993 9.4772 27.3351 9.44722 27.2764L8.55903 25.5L9.44722 23.7236C9.50653 23.605 9.51629 23.4677 9.47436 23.3419C9.43244 23.2161 9.34226 23.1121 9.22366 23.0528Z" fill="white"/>
<path d="M16 24H17C17.1326 24 17.2598 23.9473 17.3536 23.8536C17.4473 23.7598 17.5 23.6326 17.5 23.5C17.5 23.3674 17.4473 23.2402 17.3536 23.1464C17.2598 23.0527 17.1326 23 17 23H16C15.6022 23 15.2206 23.158 14.9393 23.4393C14.658 23.7206 14.5 24.1022 14.5 24.5C14.5 24.8978 14.658 25.2794 14.9393 25.5607C15.2206 25.842 15.6022 26 16 26C16.1326 26 16.2598 26.0527 16.3536 26.1464C16.4473 26.2402 16.5 26.3674 16.5 26.5C16.5 26.6326 16.4473 26.7598 16.3536 26.8536C16.2598 26.9473 16.1326 27 16 27H15C14.8674 27 14.7402 27.0527 14.6464 27.1464C14.5527 27.2402 14.5 27.3674 14.5 27.5C14.5 27.6326 14.5527 27.7598 14.6464 27.8536C14.7402 27.9473 14.8674 28 15 28H16C16.3978 28 16.7794 27.842 17.0607 27.5607C17.342 27.2794 17.5 26.8978 17.5 26.5C17.5 26.1022 17.342 25.7206 17.0607 25.4393C16.7794 25.158 16.3978 25 16 25C15.8674 25 15.7402 24.9473 15.6464 24.8536C15.5527 24.7598 15.5 24.6326 15.5 24.5C15.5 24.3674 15.5527 24.2402 15.6464 24.1464C15.7402 24.0527 15.8674 24 16 24Z" fill="white"/>
<path d="M4.5 18H19.5C19.6326 18 19.7598 17.9473 19.8536 17.8536C19.9473 17.7598 20 17.6326 20 17.5V8.5C20 8.36739 19.9473 8.24021 19.8536 8.14645C19.7598 8.05268 19.6326 8 19.5 8H4.5C4.36739 8 4.24021 8.05268 4.14645 8.14645C4.05268 8.24021 4 8.36739 4 8.5V17.5C4 17.6326 4.05268 17.7598 4.14645 17.8536C4.24021 17.9473 4.36739 18 4.5 18ZM5 15H9V17H5V15ZM14 12V14H10V12H14ZM10 11V9H14V11H10ZM15 12H19V14H15V12ZM14 15V17H10V15H14ZM9 14H5V12H9V14ZM15 17V15H19V17H15ZM19 11H15V9H19V11ZM9 9V11H5V9H9Z" fill="white"/>
</svg>
