<svg width="28" height="30" viewBox="0 0 28 30" fill="none" xmlns="http://www.w3.org/2000/svg">
<path d="M26.7779 4.55051L22.6311 0.403828C22.3707 0.143438 22.0245 0 21.6561 0H4.19695C3.4367 0 2.81812 0.618574 2.81812 1.37883V15.0302H1.84852C0.829219 15.0302 0 15.8595 0 16.8787V25.3332C0 26.3525 0.829219 27.1818 1.84852 27.1818H16.4091C17.1694 27.1818 17.7879 26.5632 17.7879 25.803V19.2273C17.7879 18.467 17.1693 17.8484 16.4091 17.8484H1.84852C1.31385 17.8484 0.878906 17.4135 0.878906 16.8788C0.878906 16.3441 1.31385 15.9092 1.84852 15.9092H2.81812V16.4093C2.81812 16.652 3.01488 16.8488 3.25758 16.8488C3.50027 16.8488 3.69703 16.652 3.69703 16.4093V1.37883C3.69703 1.10314 3.92133 0.878906 4.19695 0.878906H21.1362V5.13639C21.1362 5.63771 21.544 6.04559 22.0454 6.04559H26.3029V28.6212C26.3029 28.8969 26.0786 29.1211 25.8029 29.1211H4.19695C3.92127 29.1211 3.69703 28.8969 3.69703 28.6212C3.69703 28.3785 3.50027 28.1817 3.25758 28.1817C3.01488 28.1817 2.81812 28.3785 2.81812 28.6212C2.81812 29.3815 3.4367 30 4.19695 30H25.8029C26.5632 30 27.1818 29.3814 27.1818 28.6212V5.52551C27.1818 5.15725 27.0384 4.81096 26.7779 4.55051ZM1.84852 18.7273H16.4091C16.6847 18.7273 16.909 18.9516 16.909 19.2273V25.803C16.909 26.0787 16.6847 26.303 16.4091 26.303H1.84852C1.31385 26.303 0.878906 25.868 0.878906 25.3333V18.4521C1.16092 18.6266 1.49314 18.7273 1.84852 18.7273ZM22.0151 5.13639V1.03084L26.1511 5.16668H22.0454C22.0287 5.16668 22.0151 5.15309 22.0151 5.13639Z" fill="white"/>
<path d="M12.4524 24.8197C12.6951 24.8197 12.8918 24.6229 12.8918 24.3802V22.9193H13.8441C14.0867 22.9193 14.2835 22.7225 14.2835 22.4799C14.2835 22.2372 14.0867 22.0404 13.8441 22.0404H12.8918V21.0896H13.9642C14.2069 21.0896 14.4036 20.8928 14.4036 20.6501C14.4036 20.4074 14.2069 20.2107 13.9642 20.2107H12.4524C12.2097 20.2107 12.0129 20.4074 12.0129 20.6501V24.3802C12.0129 24.6229 12.2097 24.8197 12.4524 24.8197Z" fill="white"/>
<path d="M7.83352 24.6502C7.91584 24.7319 8.02717 24.7778 8.14313 24.7778H8.14477C8.176 24.7776 8.91223 24.7748 9.20631 24.7697C10.2922 24.7507 11.0804 23.8025 11.0804 22.5151C11.0804 21.1618 10.3121 20.2524 9.16846 20.2524H8.13574C8.01902 20.2524 7.90717 20.2988 7.82473 20.3815C7.74229 20.4641 7.69606 20.5761 7.69629 20.6927V20.6956V20.6956V24.2791C7.69629 24.3092 7.69934 24.3387 7.70514 24.3672C7.71217 24.4738 7.75729 24.5746 7.83352 24.6502ZM9.16846 21.1313C9.93018 21.1313 10.2015 21.8461 10.2015 22.5151C10.2015 23.4533 9.69399 23.8821 9.19096 23.8909C9.05115 23.8933 8.80172 23.8953 8.58106 23.8966C8.57965 23.4655 8.57672 21.5798 8.57596 21.1313H9.16846Z" fill="white"/>
<path d="M4.18335 24.8333C4.42604 24.8333 4.6228 24.6366 4.6228 24.3938V23.1988C4.84101 23.1976 5.08909 23.1965 5.2296 23.1965C6.06808 23.1965 6.75023 22.5237 6.75023 21.6967C6.75023 20.8696 6.06808 20.1968 5.2296 20.1968H4.18335C4.06657 20.1968 3.9546 20.2433 3.8721 20.326C3.78995 20.4084 3.74396 20.52 3.74396 20.6362H3.7439V24.3938C3.7439 24.6366 3.94065 24.8333 4.18335 24.8333ZM5.2296 21.0757C5.57747 21.0757 5.87132 21.3602 5.87132 21.6967C5.87132 22.0333 5.57747 22.3176 5.2296 22.3176C5.09003 22.3176 4.84505 22.3188 4.62767 22.3199C4.62649 22.0954 4.62474 21.3106 4.62409 21.0758H5.2296V21.0757Z" fill="white"/>
<path d="M12.4159 12.7419C11.3359 13.0828 10.2273 13.5546 9.63599 14.165C9.14808 14.6686 9.05967 15.2529 9.39336 15.7681C9.61982 16.1178 9.93113 16.3005 10.2812 16.3005C10.4155 16.3005 10.5556 16.2736 10.6988 16.2188C11.2152 16.0214 11.7728 15.4596 12.4037 14.5015C12.6074 14.1921 12.8136 13.8484 13.0188 13.4765C13.0936 13.4545 13.1697 13.4326 13.2477 13.4109C14.4878 13.0639 15.8909 12.812 17.1223 12.7068C17.873 13.4326 18.6489 13.9982 19.3103 14.1525C20.038 14.3222 20.6149 13.9895 20.8532 13.2623C20.9976 12.8219 20.8314 12.4066 20.4086 12.1514C19.974 11.8889 19.2186 11.7622 18.1641 11.7743C17.9395 11.7768 17.7025 11.786 17.4558 11.8013C16.9821 11.3127 16.4892 10.7288 16.0145 10.084C15.6468 9.5845 15.3181 9.08464 15.0401 8.6095C15.0703 8.50538 15.099 8.40267 15.1263 8.30177C15.4267 7.18773 15.5339 6.33478 15.4447 5.76653C15.316 4.94593 14.7864 4.82939 14.5647 4.81743C13.8097 4.77659 13.3011 5.15751 13.2044 5.83632C13.1275 6.37556 13.3089 7.11747 13.7434 8.04138C13.8467 8.26099 13.9625 8.48734 14.0897 8.71849C14.0423 8.8706 13.9909 9.02886 13.9353 9.19357C13.5301 10.392 12.9815 11.6691 12.4159 12.7419ZM10.3055 15.4193C10.2742 15.4232 10.2213 15.4298 10.131 15.2903C10.0575 15.1767 10.0535 15.0911 10.1162 14.9741C10.2629 14.7006 10.7639 14.3168 11.7332 13.9204C11.0567 14.9697 10.5511 15.3886 10.3055 15.4193ZM20.0253 12.9587C20.0247 12.9642 20.0229 12.9739 20.018 12.9887C19.9083 13.3236 19.7608 13.3552 19.51 13.2967C19.2038 13.2252 18.8148 12.999 18.381 12.6528C19.5557 12.6621 19.9655 12.8738 20.0253 12.9587ZM14.0745 5.96042C14.0924 5.8348 14.1125 5.69353 14.4468 5.69353C14.4679 5.69353 14.4902 5.69411 14.5137 5.69523C14.6138 5.81716 14.6653 6.35968 14.4338 7.43335C14.161 6.80786 14.0278 6.28825 14.0745 5.96042ZM14.6864 9.71066C14.8793 10.0071 15.0868 10.3064 15.3067 10.6051C15.6222 11.0337 15.9785 11.4786 16.3555 11.9033C15.9194 11.9559 15.4696 12.0238 15.0197 12.1055C14.7153 12.1608 14.1845 12.265 13.5631 12.42C13.7009 12.1342 13.8368 11.838 13.9698 11.5334C14.234 10.9282 14.4771 10.309 14.6864 9.71066Z" fill="white"/>
</svg>
