<svg width="27" height="25" viewBox="0 0 27 25" fill="none" xmlns="http://www.w3.org/2000/svg">
<path d="M12.9309 10.3447H9.0517V6.46545C9.0517 6.35113 9.00629 6.2415 8.92546 6.16067C8.84463 6.07984 8.73499 6.03442 8.62068 6.03442C7.68294 6.03442 6.76626 6.3125 5.98656 6.83347C5.20686 7.35445 4.59916 8.09494 4.24031 8.9613C3.88145 9.82765 3.78756 10.781 3.9705 11.7007C4.15344 12.6204 4.60501 13.4652 5.26809 14.1283C5.93117 14.7914 6.77598 15.2429 7.6957 15.4259C8.61542 15.6088 9.56873 15.5149 10.4351 15.1561C11.3014 14.7972 12.0419 14.1895 12.5629 13.4098C13.0839 12.6301 13.362 11.7134 13.362 10.7757C13.362 10.6614 13.3166 10.5518 13.2357 10.4709C13.1549 10.3901 13.0453 10.3447 12.9309 10.3447ZM8.62068 14.6549C7.6288 14.6555 6.67438 14.2762 5.95356 13.5948C5.23275 12.9135 4.80031 11.9819 4.74512 10.9915C4.68993 10.0012 5.01619 9.02735 5.65684 8.27013C6.29749 7.5129 7.20385 7.02985 8.18965 6.92024V10.7757C8.18965 10.89 8.23506 10.9997 8.3159 11.0805C8.39673 11.1613 8.50636 11.2067 8.62068 11.2067H12.4762C12.3689 12.1546 11.9167 13.0298 11.2057 13.6657C10.4947 14.3016 9.57457 14.6537 8.62068 14.6549Z" fill="#30A657"/>
<path d="M26.2926 0H0.431026C0.316711 0 0.207077 0.0454115 0.126244 0.126244C0.0454115 0.207077 0 0.316711 0 0.431026V3.01718C0 3.13149 0.0454115 3.24113 0.126244 3.32196C0.207077 3.40279 0.316711 3.44821 0.431026 3.44821H1.7241V18.1031H1.29308C1.17876 18.1031 1.06913 18.1485 0.988296 18.2293C0.907463 18.3102 0.862051 18.4198 0.862051 18.5341V20.2582C0.862051 20.3725 0.907463 20.4822 0.988296 20.563C1.06913 20.6438 1.17876 20.6892 1.29308 20.6892H12.9308V22.4133C12.931 22.4375 12.9332 22.4617 12.9372 22.4855C12.6486 22.5859 12.4048 22.7852 12.2491 23.0482C12.0934 23.3112 12.0359 23.6209 12.0868 23.9222C12.1376 24.2236 12.2936 24.4972 12.527 24.6945C12.7604 24.8918 13.0562 25 13.3618 25C13.6674 25 13.9632 24.8918 14.1966 24.6945C14.43 24.4972 14.5859 24.2236 14.6368 23.9222C14.6877 23.6209 14.6302 23.3112 14.4745 23.0482C14.3188 22.7852 14.075 22.5859 13.7864 22.4855C13.7904 22.4617 13.7926 22.4375 13.7928 22.4133V20.6892H25.4305C25.5448 20.6892 25.6545 20.6438 25.7353 20.563C25.8161 20.4822 25.8615 20.3725 25.8615 20.2582V18.5341C25.8615 18.4198 25.8161 18.3102 25.7353 18.2293C25.6545 18.1485 25.5448 18.1031 25.4305 18.1031H24.9995V3.44821H26.2926C26.4069 3.44821 26.5165 3.40279 26.5973 3.32196C26.6782 3.24113 26.7236 3.13149 26.7236 3.01718V0.431026C26.7236 0.316711 26.6782 0.207077 26.5973 0.126244C26.5165 0.0454115 26.4069 0 26.2926 0ZM3.44821 0.862051H23.2754V2.58615H3.44821V0.862051ZM24.1374 3.44821V18.1031H2.58615V3.44821H24.1374ZM0.862051 2.58615V0.862051H2.58615V2.58615H0.862051ZM13.7928 23.7064C13.7928 23.7917 13.7675 23.875 13.7202 23.9459C13.6728 24.0168 13.6055 24.072 13.5267 24.1046C13.448 24.1372 13.3613 24.1458 13.2777 24.1292C13.1941 24.1125 13.1173 24.0715 13.057 24.0112C12.9967 23.9509 12.9557 23.8741 12.9391 23.7905C12.9224 23.7069 12.931 23.6202 12.9636 23.5415C12.9962 23.4627 13.0514 23.3954 13.1223 23.348C13.1932 23.3007 13.2765 23.2754 13.3618 23.2754C13.4761 23.2755 13.5856 23.321 13.6664 23.4018C13.7472 23.4826 13.7927 23.5921 13.7928 23.7064ZM24.9995 19.8272H1.7241V18.9651H24.9995V19.8272ZM25.8615 2.58615H24.1374V0.862051H25.8615V2.58615Z" fill="#30A657"/>
<path d="M9.91345 9.91376H14.2237C14.338 9.91376 14.4477 9.86835 14.5285 9.78752C14.6093 9.70669 14.6547 9.59705 14.6547 9.48274C14.6533 8.22571 14.1533 7.02057 13.2645 6.13172C12.3756 5.24287 11.1705 4.74288 9.91345 4.74146C9.79913 4.74146 9.6895 4.78687 9.60867 4.8677C9.52783 4.94853 9.48242 5.05817 9.48242 5.17248V9.48274C9.48242 9.59705 9.52783 9.70669 9.60867 9.78752C9.6895 9.86835 9.79913 9.91376 9.91345 9.91376ZM10.3445 5.62721C11.2185 5.72633 12.0332 6.11899 12.6552 6.74101C13.2772 7.36303 13.6699 8.17764 13.769 9.05171H10.3445V5.62721Z" fill="#30A657"/>
<path d="M21.767 4.74146H17.0257C16.6257 4.74191 16.2423 4.901 15.9594 5.18381C15.6766 5.46663 15.5175 5.85008 15.5171 6.25004V14.0085C15.5175 14.4085 15.6766 14.7919 15.9594 15.0747C16.2423 15.3576 16.6257 15.5166 17.0257 15.5171H21.767C22.1669 15.5166 22.5504 15.3576 22.8332 15.0747C23.116 14.7919 23.2751 14.4085 23.2756 14.0085V6.25004C23.2751 5.85008 23.116 5.46663 22.8332 5.18381C22.5504 4.901 22.1669 4.74191 21.767 4.74146ZM22.4135 14.0085C22.4133 14.1799 22.3451 14.3443 22.2239 14.4655C22.1027 14.5867 21.9384 14.6549 21.767 14.655H17.0257C16.8543 14.6549 16.6899 14.5867 16.5687 14.4655C16.4475 14.3443 16.3793 14.1799 16.3791 14.0085V6.25004C16.3793 6.07863 16.4475 5.91429 16.5687 5.79308C16.6899 5.67187 16.8543 5.60369 17.0257 5.60351H21.767C21.9384 5.60369 22.1027 5.67187 22.2239 5.79308C22.3451 5.91429 22.4133 6.07863 22.4135 6.25004V14.0085Z" fill="#30A657"/>
<path d="M21.1204 6.46533H17.6722C17.5579 6.46533 17.4483 6.51074 17.3675 6.59158C17.2866 6.67241 17.2412 6.78204 17.2412 6.89636C17.2412 7.01067 17.2866 7.12031 17.3675 7.20114C17.4483 7.28197 17.5579 7.32738 17.6722 7.32738H21.1204C21.2348 7.32738 21.3444 7.28197 21.4252 7.20114C21.5061 7.12031 21.5515 7.01067 21.5515 6.89636C21.5515 6.78204 21.5061 6.67241 21.4252 6.59158C21.3444 6.51074 21.2348 6.46533 21.1204 6.46533Z" fill="#30A657"/>
<path d="M21.1204 8.18945H17.6722C17.5579 8.18945 17.4483 8.23486 17.3675 8.3157C17.2866 8.39653 17.2412 8.50616 17.2412 8.62048C17.2412 8.73479 17.2866 8.84443 17.3675 8.92526C17.4483 9.00609 17.5579 9.0515 17.6722 9.0515H21.1204C21.2348 9.0515 21.3444 9.00609 21.4252 8.92526C21.5061 8.84443 21.5515 8.73479 21.5515 8.62048C21.5515 8.50616 21.5061 8.39653 21.4252 8.3157C21.3444 8.23486 21.2348 8.18945 21.1204 8.18945Z" fill="#30A657"/>
<path d="M21.1204 9.91357H17.6722C17.5579 9.91357 17.4483 9.95899 17.3675 10.0398C17.2866 10.1207 17.2412 10.2303 17.2412 10.3446C17.2412 10.4589 17.2866 10.5685 17.3675 10.6494C17.4483 10.7302 17.5579 10.7756 17.6722 10.7756H21.1204C21.2348 10.7756 21.3444 10.7302 21.4252 10.6494C21.5061 10.5685 21.5515 10.4589 21.5515 10.3446C21.5515 10.2303 21.5061 10.1207 21.4252 10.0398C21.3444 9.95899 21.2348 9.91357 21.1204 9.91357Z" fill="#30A657"/>
<path d="M18.9653 11.6377H17.6722C17.5579 11.6377 17.4483 11.6831 17.3675 11.7639C17.2866 11.8448 17.2412 11.9544 17.2412 12.0687C17.2412 12.183 17.2866 12.2927 17.3675 12.3735C17.4483 12.4543 17.5579 12.4997 17.6722 12.4997H18.9653C19.0796 12.4997 19.1893 12.4543 19.2701 12.3735C19.3509 12.2927 19.3963 12.183 19.3963 12.0687C19.3963 11.9544 19.3509 11.8448 19.2701 11.7639C19.1893 11.6831 19.0796 11.6377 18.9653 11.6377Z" fill="#30A657"/>
<path d="M20.6892 11.6377H20.2582C20.1439 11.6377 20.0342 11.6831 19.9534 11.7639C19.8726 11.8448 19.8271 11.9544 19.8271 12.0687C19.8271 12.183 19.8726 12.2927 19.9534 12.3735C20.0342 12.4543 20.1439 12.4997 20.2582 12.4997H20.6892C20.8035 12.4997 20.9131 12.4543 20.994 12.3735C21.0748 12.2927 21.1202 12.183 21.1202 12.0687C21.1202 11.9544 21.0748 11.8448 20.994 11.7639C20.9131 11.6831 20.8035 11.6377 20.6892 11.6377Z" fill="#30A657"/>
</svg>
