<svg width="28" height="14" viewBox="0 0 28 14" fill="none" xmlns="http://www.w3.org/2000/svg">
<path d="M27.2738 6.57467C27.2735 6.57435 27.2732 6.57397 27.2728 6.57365L21.7037 1.01744C21.2865 0.601208 20.6116 0.602757 20.1963 1.02108C19.7811 1.43934 19.7827 2.11586 20.1999 2.53215L23.939 6.26251H1.36709C0.77844 6.26251 0.30127 6.74087 0.30127 7.33101C0.30127 7.92114 0.77844 8.39951 1.36709 8.39951H23.939L20.2 12.1299C19.7827 12.5462 19.7811 13.2227 20.1964 13.6409C20.6117 14.0593 21.2866 14.0608 21.7037 13.6446L27.2729 8.08836C27.2732 8.08804 27.2735 8.08767 27.2738 8.08735C27.6913 7.66967 27.6899 6.99096 27.2738 6.57467Z" fill="#D8D8D8"/>
</svg>
